<svg width="47" height="49" viewBox="0 0 47 49" fill="none" xmlns="http://www.w3.org/2000/svg">
<path d="M23.667 15.6563H12.9134C11.9499 15.655 11.0262 15.2717 10.3449 14.5903C9.66368 13.9089 9.2805 12.9851 9.27945 12.0216V8.53189C9.28071 7.5685 9.66398 6.64492 10.3452 5.9637C11.0264 5.28248 11.95 4.89921 12.9134 4.89795H23.667C24.6305 4.899 25.5543 5.28218 26.2357 5.96342C26.9171 6.64467 27.3004 7.56836 27.3017 8.53189V12.0216C27.3006 12.9852 26.9174 13.9091 26.236 14.5905C25.5545 15.272 24.6306 15.6552 23.667 15.6563ZM12.9134 7.3219C12.5926 7.32233 12.2851 7.44994 12.0583 7.67677C11.8314 7.90359 11.7038 8.21112 11.7034 8.53189V12.0216C11.7038 12.3424 11.8314 12.65 12.0582 12.877C12.285 13.1039 12.5925 13.2317 12.9134 13.2323H23.667C23.988 13.2319 24.2957 13.1042 24.5227 12.8772C24.7496 12.6503 24.8773 12.3426 24.8777 12.0216V8.53189C24.8773 8.21098 24.7496 7.90334 24.5226 7.67649C24.2956 7.44964 23.9879 7.32211 23.667 7.3219H12.9134Z" fill="white"/>
<path d="M21.263 25.8009H17.8355L13.9074 30.538H18.7697L15.3637 36.3153L22.6619 28.6521H18.4046L21.263 25.8009Z" fill="white"/>
<path d="M33.2225 32.2701V37.8801C33.2223 38.0149 33.1687 38.1441 33.0734 38.2394C32.978 38.3347 32.8488 38.3884 32.714 38.3886H3.86723C3.73242 38.3884 3.60319 38.3347 3.50787 38.2394C3.41254 38.1441 3.3589 38.0149 3.35869 37.8801V24.2362C3.3589 24.1014 3.41254 23.9722 3.50787 23.8769C3.60319 23.7815 3.73242 23.7279 3.86723 23.7277H7.80487V5.15543C7.8055 4.67891 7.99508 4.22209 8.33203 3.88515C8.66897 3.5482 9.12579 3.35862 9.60231 3.35799H26.9789C27.4554 3.35862 27.9123 3.5482 28.2492 3.88515C28.5862 4.22209 28.7757 4.67891 28.7764 5.15543V23.7277H32.714C32.8488 23.7279 32.978 23.7815 33.0734 23.8769C33.1687 23.9722 33.2223 24.1014 33.2225 24.2362V29.8454H35.6465V24.2362C35.6457 23.4586 35.3363 22.7131 34.7864 22.1633C34.2364 21.6135 33.4908 21.3044 32.7132 21.3037H31.1987V5.15623C31.1987 4.0358 30.7536 2.96126 29.9614 2.16899C29.1691 1.37673 28.0946 0.931641 26.9741 0.931641H9.59753C8.4771 0.931641 7.40256 1.37673 6.61029 2.16899C5.81803 2.96126 5.37294 4.0358 5.37294 5.15623V21.3037H3.85846C3.08222 21.3065 2.33866 21.6165 1.79044 22.1661C1.24222 22.7157 0.933974 23.46 0.933136 24.2362L0.933136 37.8792C0.93398 38.6567 1.24321 39.4021 1.79298 39.9519C2.34275 40.5017 3.08815 40.8109 3.86564 40.8118H32.7132C33.4907 40.8109 34.2361 40.5017 34.7859 39.9519C35.3356 39.4021 35.6449 38.6567 35.6457 37.8792V32.2701H33.2225Z" fill="white"/>
<path d="M44.9192 9.78088H37.8808C37.5764 9.78088 37.2845 9.90181 37.0692 10.1171C36.854 10.3323 36.733 10.6243 36.733 10.9287C36.733 11.2331 36.854 11.5251 37.0692 11.7403C37.2845 11.9556 37.5764 12.0765 37.8808 12.0765H44.9192C45.2236 12.0765 45.5155 11.9556 45.7308 11.7403C45.9461 11.5251 46.067 11.2331 46.067 10.9287C46.067 10.6243 45.9461 10.3323 45.7308 10.1171C45.5155 9.90181 45.2236 9.78088 44.9192 9.78088Z" fill="white"/>
<path d="M37.7024 13.7847C37.7024 14.7654 38.092 15.7059 38.7854 16.3994C39.4789 17.0928 40.4194 17.4824 41.4001 17.4824C42.3808 17.4824 43.3213 17.0928 44.0148 16.3994C44.7082 15.7059 45.0978 14.7654 45.0978 13.7847V12.8409H37.7024V13.7847Z" fill="white"/>
<path d="M40.2905 5.77714C40.2905 5.54037 40.1964 5.3133 40.029 5.14588C39.8616 4.97846 39.6345 4.8844 39.3977 4.8844C39.161 4.8844 38.9339 4.97846 38.7665 5.14588C38.5991 5.3133 38.505 5.54037 38.505 5.77714V8.96551H40.2905V5.77714Z" fill="white"/>
<path d="M44.2942 5.77714C44.2942 5.54037 44.2002 5.3133 44.0328 5.14588C43.8653 4.97846 43.6383 4.8844 43.4015 4.8844C43.1647 4.8844 42.9377 4.97846 42.7702 5.14588C42.6028 5.3133 42.5088 5.54037 42.5088 5.77714V8.96551H44.2942V5.77714Z" fill="white"/>
<path d="M40.504 18.6558V39.9142C40.504 43.1026 38.2347 45.6987 35.4457 45.6987H26.3867C25.3161 45.6544 24.2862 45.276 23.4416 44.6165C22.597 43.957 21.9801 43.0497 21.6775 42.0217H19.2145C19.5603 43.6873 20.4553 45.1885 21.7561 46.2847C23.057 47.3808 24.6882 48.0085 26.3883 48.0669H35.4441C39.5387 48.0669 42.8706 44.4098 42.8706 39.9142V18.6558H40.504Z" fill="white"/>
</svg>
