<svg width="100" height="111" viewBox="0 0 100 111" fill="none" xmlns="http://www.w3.org/2000/svg">
<path d="M25.0926 110.73C38.9509 110.73 50.1853 98.7378 50.1853 83.9445C50.1853 69.1513 38.9509 57.1589 25.0926 57.1589C11.2344 57.1589 0 69.1513 0 83.9445C0 98.7378 11.2344 110.73 25.0926 110.73Z" fill="#B3C6FF"/>
<path d="M97.4168 21.7878V7.96851H3.02515V21.7878H42.1172V33.4993H26.655C25.9096 33.4993 25.1946 33.8154 24.6674 34.3781C24.1403 34.9408 23.8442 35.704 23.8442 36.4998V74.0438C23.8442 74.8396 24.1403 75.6028 24.6674 76.1655C25.1946 76.7282 25.9096 77.0443 26.655 77.0443H42.1172V105.179H58.6343V77.0427H73.7913C74.5368 77.0427 75.2518 76.7266 75.7789 76.1639C76.3061 75.6012 76.6022 74.838 76.6022 74.0422V36.4998C76.6022 35.704 76.3061 34.9408 75.7789 34.3781C75.2518 33.8154 74.5368 33.4993 73.7913 33.4993H58.6298V21.7878H97.4168Z" fill="#4270FF"/>
<path d="M62.3856 41.4365H38.0563C37.3784 41.4363 36.707 41.5787 36.0807 41.8555C35.4543 42.1324 34.8852 42.5383 34.4058 43.05C33.9264 43.5617 33.5462 44.1692 33.2869 44.8378C33.0275 45.5065 32.8942 46.2231 32.8943 46.9468V63.387C32.8943 64.8484 33.4382 66.2499 34.4063 67.2833C35.3743 68.3167 36.6873 68.8972 38.0563 68.8972H62.3856C63.7546 68.8972 65.0676 68.3167 66.0357 67.2833C67.0037 66.2499 67.5476 64.8484 67.5476 63.387V46.9468C67.5476 45.4854 67.0037 44.0838 66.0357 43.0504C65.0676 42.0171 63.7546 41.4365 62.3856 41.4365Z" fill="white"/>
<path d="M62.3856 38.6871H38.0563C36.0054 38.6913 34.0395 39.5629 32.5893 41.111C31.139 42.6591 30.3225 44.7576 30.3186 46.9469V63.3871C30.3225 65.5764 31.139 67.6749 32.5893 69.223C34.0395 70.7711 36.0054 71.6427 38.0563 71.6469H62.3856C64.4366 71.6427 66.4025 70.7711 67.8527 69.223C69.303 67.6749 70.1194 65.5764 70.1234 63.3871V46.9469C70.1194 44.7576 69.303 42.6591 67.8527 41.111C66.4025 39.5629 64.4366 38.6913 62.3856 38.6871ZM35.4776 63.3871V46.9469C35.4784 46.2171 35.7503 45.5174 36.2338 45.0013C36.7172 44.4853 37.3727 44.195 38.0563 44.1942H48.8565L40.8955 54.4427H51.2626L44.8031 66.1414H38.0623C37.7231 66.1418 37.3872 66.0709 37.0737 65.9327C36.7603 65.7945 36.4754 65.5917 36.2353 65.3359C35.9953 65.0801 35.8049 64.7764 35.6748 64.442C35.5448 64.1076 35.4778 63.7491 35.4776 63.3871ZM64.9659 63.3871C64.9647 64.117 64.6924 64.8167 64.2088 65.3327C63.7251 65.8488 63.0695 66.139 62.3856 66.1398H45.2852L59.548 50.1523H50.471L56.0541 44.1926H62.3752C63.0592 44.193 63.715 44.4831 64.1988 44.9992C64.6825 45.5153 64.9547 46.2152 64.9555 46.9453L64.9659 63.3871Z" fill="#3254BF"/>
<path d="M100 24.5454V5.21581H89.0779V2.90148H87.0393C87.0242 2.32161 86.7983 1.77076 86.4095 1.36549C86.0207 0.960227 85.4994 0.732355 84.956 0.730103H84.2566C83.7119 0.730292 83.1888 0.957249 82.7984 1.36273C82.4079 1.76821 82.1811 2.32024 82.166 2.90148H80.1259V5.21581H71.8867V2.90148H69.8495C69.8345 2.32161 69.6086 1.77076 69.2198 1.36549C68.831 0.960227 68.3097 0.732355 67.7663 0.730103H67.0714C66.528 0.732355 66.0067 0.960227 65.6179 1.36549C65.2291 1.77076 65.0032 2.32161 64.9882 2.90148H62.9362V5.21581H54.697V2.90148H52.6598C52.6448 2.32161 52.4189 1.77076 52.0301 1.36549C51.6413 0.960227 51.12 0.732355 50.5766 0.730103H49.8817C49.3383 0.732355 48.817 0.960227 48.4282 1.36549C48.0394 1.77076 47.8135 2.32161 47.7985 2.90148H45.7465V5.21581H37.5072V2.90148H35.4701C35.4551 2.32161 35.2292 1.77076 34.8404 1.36549C34.4516 0.960227 33.9303 0.732355 33.3869 0.730103H32.692C32.1486 0.732355 31.6273 0.960227 31.2385 1.36549C30.8497 1.77076 30.6238 2.32161 30.6087 2.90148H28.5567V5.21581H20.3175V2.90148H18.2804C18.2653 2.32024 18.0384 1.76821 17.648 1.36273C17.2576 0.957249 16.7345 0.730292 16.1897 0.730103H15.4948C14.9501 0.730292 14.427 0.957249 14.0365 1.36273C13.6461 1.76821 13.4193 2.32024 13.4042 2.90148H11.367V5.21581H0.44342V24.5454H39.5354V30.7402H26.6565C25.2267 30.7419 23.8558 31.3489 22.8446 32.428C21.8334 33.5071 21.2644 34.9703 21.2624 36.4967V74.0438C21.2644 75.5702 21.8334 77.0334 22.8446 78.1125C23.8558 79.1916 25.2267 79.7986 26.6565 79.8003H39.5369V107.936H61.213V79.8003H73.7869C75.2166 79.7986 76.5873 79.1916 77.5983 78.1124C78.6093 77.0332 79.1779 75.57 79.1795 74.0438V57.934H74.016V74.0438C74.0156 74.1082 73.9915 74.1697 73.9489 74.2152C73.9063 74.2607 73.8486 74.2865 73.7884 74.2869H56.0481V102.423H44.7004V74.2885H26.6565C26.596 74.2885 26.538 74.2629 26.495 74.2174C26.4521 74.1718 26.4278 74.11 26.4274 74.0454V36.4998C26.4278 36.4352 26.4521 36.3734 26.495 36.3279C26.538 36.2824 26.596 36.2568 26.6565 36.2568H44.7004V19.0319H5.60837V10.7292H94.835V19.0319H56.0481V36.2568H73.7884C73.8486 36.2572 73.9063 36.283 73.9489 36.3284C73.9915 36.3739 74.0156 36.4355 74.016 36.4998V52.4206H79.181V36.4998C79.1794 34.9737 78.6107 33.5104 77.5998 32.4313C76.5888 31.3521 75.2181 30.7451 73.7884 30.7434H61.2145V24.5485L100 24.5454Z" fill="#3254BF"/>
</svg>
