<svg width="100" height="111" viewBox="0 0 100 111" fill="none" xmlns="http://www.w3.org/2000/svg">
<path d="M50.03 110.73C63.836 110.73 75.028 98.7383 75.028 83.9459C75.028 69.1534 63.836 57.1617 50.03 57.1617C36.224 57.1617 25.0321 69.1534 25.0321 83.9459C25.0321 98.7383 36.224 110.73 50.03 110.73Z" fill="#FFE69C"/>
<path d="M74.9954 76.6968V10.4508C74.9939 8.60548 74.3086 6.83633 73.0902 5.53209C71.8719 4.22785 70.2201 3.49524 68.4978 3.49524H41.131C40.2777 3.49524 39.4328 3.67531 38.6444 4.02518C37.8561 4.37505 37.1398 4.88786 36.5365 5.53433C35.9331 6.18081 35.4545 6.94828 35.1279 7.79294C34.8014 8.6376 34.6333 9.5429 34.6333 10.4571V76.6968C34.6345 78.5424 35.3196 80.312 36.538 81.6166C37.7564 82.9211 39.4085 83.654 41.131 83.654H68.4978C70.2203 83.654 71.8723 82.9211 73.0907 81.6166C74.3092 80.312 74.9943 78.5424 74.9954 76.6968Z" fill="#FFC107"/>
<path d="M54.8136 39.9508C61.6111 39.9508 67.1215 34.0466 67.1215 26.7635C67.1215 19.4803 61.6111 13.5762 54.8136 13.5762C48.0162 13.5762 42.5058 19.4803 42.5058 26.7635C42.5058 34.0466 48.0162 39.9508 54.8136 39.9508Z" fill="white"/>
<path d="M54.8136 73.5715C61.6111 73.5715 67.1215 67.6673 67.1215 60.3842C67.1215 53.1011 61.6111 47.1969 54.8136 47.1969C48.0162 47.1969 42.5058 53.1011 42.5058 60.3842C42.5058 67.6673 48.0162 73.5715 54.8136 73.5715Z" fill="white"/>
<path d="M19.6855 40.1586C29.1363 40.1586 36.7977 31.9498 36.7977 21.8237C36.7977 11.6976 29.1363 3.48877 19.6855 3.48877C10.2347 3.48877 2.57329 11.6976 2.57329 21.8237C2.57329 31.9498 10.2347 40.1586 19.6855 40.1586Z" fill="white"/>
<path d="M97.6246 39.1967H82.6812C82.0454 39.2135 81.441 39.4959 80.997 39.9836C80.5529 40.4713 80.3043 41.1257 80.3043 41.807C80.3043 42.4884 80.5529 43.1428 80.997 43.6305C81.441 44.1182 82.0454 44.4006 82.6812 44.4174H97.6231C98.2588 44.4006 98.8632 44.1182 99.3073 43.6305C99.7514 43.1428 100 42.4884 100 41.807C100 41.1257 99.7514 40.4713 99.3073 39.9836C98.8632 39.4959 98.2588 39.2135 97.6231 39.1967H97.6246Z" fill="#BF9105"/>
<path d="M82.3034 48.303C82.3034 50.5342 83.1306 52.674 84.6031 54.2517C86.0756 55.8294 88.0727 56.7157 90.1551 56.7157C92.2375 56.7157 94.2346 55.8294 95.7071 54.2517C97.1795 52.674 98.0068 50.5342 98.0068 48.303V46.157H82.3034V48.303Z" fill="#BF9105"/>
<path d="M87.7996 30.0887C87.7996 29.5501 87.5999 29.0335 87.2444 28.6527C86.8889 28.2718 86.4068 28.0578 85.9041 28.0578C85.4014 28.0578 84.9192 28.2718 84.5637 28.6527C84.2083 29.0335 84.0086 29.5501 84.0086 30.0887V37.3396H87.7996V30.0887Z" fill="#BF9105"/>
<path d="M96.2972 30.0887C96.2972 29.5502 96.0975 29.0339 95.7422 28.6531C95.3869 28.2724 94.9049 28.0585 94.4024 28.0585C93.8999 28.0585 93.4179 28.2724 93.0626 28.6531C92.7072 29.0339 92.5076 29.5502 92.5076 30.0887V37.3395H96.2972V30.0887Z" fill="#BF9105"/>
<path d="M87.564 88.6618C87.564 95.511 83.0545 101.084 77.5124 101.084H72.0088C66.4667 101.084 61.9572 95.511 61.9572 88.6618H55.5573C55.5573 99.2967 62.9379 107.941 72.0088 107.941H77.5124C86.5848 107.941 93.9639 99.2919 93.9639 88.6618V62.1539H87.564V88.6618Z" fill="#BF9105"/>
<path d="M50.0641 29.8761C51.6686 29.8761 52.9692 28.4825 52.9692 26.7634C52.9692 25.0443 51.6686 23.6507 50.0641 23.6507C48.4596 23.6507 47.159 25.0443 47.159 26.7634C47.159 28.4825 48.4596 29.8761 50.0641 29.8761Z" fill="#BF9105"/>
<path d="M59.5617 29.8761C61.1661 29.8761 62.4668 28.4825 62.4668 26.7634C62.4668 25.0443 61.1661 23.6507 59.5617 23.6507C57.9572 23.6507 56.6566 25.0443 56.6566 26.7634C56.6566 28.4825 57.9572 29.8761 59.5617 29.8761Z" fill="#BF9105"/>
<path d="M50.0641 63.4967C51.6686 63.4967 52.9692 62.1031 52.9692 60.384C52.9692 58.6649 51.6686 57.2713 50.0641 57.2713C48.4596 57.2713 47.159 58.6649 47.159 60.384C47.159 62.1031 48.4596 63.4967 50.0641 63.4967Z" fill="#BF9105"/>
<path d="M59.5617 63.4967C61.1661 63.4967 62.4668 62.1031 62.4668 60.384C62.4668 58.6649 61.1661 57.2713 59.5617 57.2713C57.9572 57.2713 56.6566 58.6649 56.6566 60.384C56.6566 62.1031 57.9572 63.4967 59.5617 63.4967Z" fill="#BF9105"/>
<path d="M19.684 42.9111C15.7908 42.9111 11.9851 41.6741 8.74802 39.3566C5.51097 37.039 2.98802 33.7451 1.49822 29.8912C0.00843065 26.0373 -0.381292 21.7966 0.37834 17.7055C1.13797 13.6143 3.01284 9.8563 5.76585 6.90681C8.51886 3.95732 12.0264 1.94877 15.8448 1.13517C19.6632 0.321565 23.621 0.739453 27.2178 2.33598C30.8146 3.93252 33.8887 6.63598 36.0514 10.1045C38.2141 13.573 39.3683 17.6508 39.368 21.8222C39.3626 27.4138 37.2869 32.7746 33.5966 36.7283C29.9063 40.682 24.9027 42.9056 19.684 42.9111ZM19.684 6.2444C16.8085 6.2444 13.9975 7.15802 11.6066 8.86972C9.2157 10.5814 7.35221 13.0143 6.25179 15.8608C5.15138 18.7073 4.86346 21.8395 5.42444 24.8612C5.98543 27.883 7.37013 30.6587 9.40344 32.8373C11.4367 35.0159 14.0273 36.4996 16.8476 37.1006C19.6679 37.7017 22.5912 37.3932 25.2478 36.2142C27.9045 35.0351 30.1752 33.0385 31.7727 30.4767C33.3703 27.915 34.223 24.9032 34.223 21.8222C34.2187 17.6921 32.6855 13.7325 29.9598 10.8121C27.2342 7.89173 23.5387 6.24902 19.684 6.2444Z" fill="#BF9105"/>
<path d="M27.5935 19.211H22.121V13.3507C22.129 13.0025 22.0719 12.6561 21.9531 12.3319C21.8343 12.0077 21.6561 11.7122 21.4291 11.4629C21.2021 11.2136 20.9308 11.0155 20.6312 10.8802C20.3317 10.7449 20.0099 10.6752 19.6848 10.6752C19.3597 10.6752 19.0379 10.7449 18.7383 10.8802C18.4387 11.0155 18.1675 11.2136 17.9404 11.4629C17.7134 11.7122 17.5353 12.0077 17.4164 12.3319C17.2976 12.6561 17.2405 13.0025 17.2485 13.3507V19.211H11.7761C11.1299 19.211 10.5102 19.4861 10.0534 19.9756C9.59648 20.4651 9.33981 21.1291 9.33981 21.8214C9.33981 22.5137 9.59648 23.1776 10.0534 23.6671C10.5102 24.1567 11.1299 24.4317 11.7761 24.4317H17.247V30.2936C17.239 30.6418 17.2961 30.9882 17.4149 31.3124C17.5338 31.6366 17.7119 31.9321 17.939 32.1814C18.166 32.4307 18.4373 32.6288 18.7368 32.7641C19.0364 32.8994 19.3582 32.9691 19.6833 32.9691C20.0084 32.9691 20.3302 32.8994 20.6297 32.7641C20.9293 32.6288 21.2006 32.4307 21.4276 32.1814C21.6546 31.9321 21.8328 31.6366 21.9516 31.3124C22.0705 30.9882 22.1275 30.6418 22.1195 30.2936V24.4333H27.5935C28.2396 24.4333 28.8593 24.1582 29.3162 23.6687C29.7731 23.1792 30.0297 22.5152 30.0297 21.8229C30.0297 21.1306 29.7731 20.4667 29.3162 19.9772C28.8593 19.4876 28.2396 19.2126 27.5935 19.2126V19.211Z" fill="#BF9105"/>
<path d="M68.4963 0.731506H41.131C39.421 0.734266 37.7466 1.25414 36.3002 2.23133C34.8538 3.20852 33.6942 4.60333 32.9549 6.25531C34.6942 7.95954 36.1355 9.98283 37.2111 12.2299V10.4506C37.2122 9.33577 37.6261 8.267 38.3618 7.47873C39.0975 6.69046 40.095 6.24705 41.1354 6.24579H68.5022C69.5427 6.24705 70.5402 6.69046 71.2759 7.47873C72.0116 8.267 72.4254 9.33577 72.4266 10.4506V76.6966C72.4254 77.8114 72.0116 78.8801 71.2759 79.6684C70.5402 80.4567 69.5427 80.9001 68.5022 80.9013H41.131C40.0905 80.9001 39.093 80.4567 38.3573 79.6684C37.6216 78.8801 37.2078 77.8114 37.2066 76.6966V63.141H32.066V76.6966C32.0687 79.2733 33.0253 81.7437 34.7258 83.5657C36.4264 85.3878 38.732 86.4127 41.1369 86.4156H68.5037C70.9086 86.4127 73.2142 85.3878 74.9148 83.5657C76.6153 81.7437 77.5719 79.2733 77.5746 76.6966V10.4506C77.5719 7.87243 76.6143 5.40086 74.9122 3.5786C73.21 1.75633 70.9025 0.732346 68.4963 0.731506Z" fill="#BF9105"/>
<path d="M37.2051 50.273V31.4158C35.949 34.0382 34.1968 36.3513 32.0601 38.2079V57.6269H37.2051V50.273Z" fill="#BF9105"/>
</svg>
