<svg width="100" height="111" viewBox="0 0 100 111" fill="none" xmlns="http://www.w3.org/2000/svg">
<path d="M49.7052 65.4968H39.2491V75.4847H49.7052V65.4968Z" fill="#BF411A"/>
<path d="M49.7052 78.5317H39.2491V88.5196H49.7052V78.5317Z" fill="#BF411A"/>
<path d="M49.7052 91.565H39.2491V101.553H49.7052V91.565Z" fill="#BF411A"/>
<path d="M62.8182 65.4967H52.3621V75.4846H62.8182V65.4967Z" fill="#BF411A"/>
<path d="M62.8182 78.5316H52.3621V88.5195H62.8182V78.5316Z" fill="#BF411A"/>
<path d="M62.8182 91.5649H52.3621V101.553H62.8182V91.5649Z" fill="#BF411A"/>
<path d="M75.9328 65.4967H65.4767V75.4846H75.9328V65.4967Z" fill="#BF411A"/>
<path d="M75.9328 78.5316H65.4767V88.5195H75.9328V78.5316Z" fill="#BF411A"/>
<path d="M75.9328 91.5649H65.4767V101.553H75.9328V91.5649Z" fill="#BF411A"/>
<path d="M28.7747 83.2202C44.6666 83.2202 57.5494 70.9142 57.5494 55.734C57.5494 40.5539 44.6666 28.2479 28.7747 28.2479C12.8829 28.2479 0 40.5539 0 55.734C0 70.9142 12.8829 83.2202 28.7747 83.2202Z" fill="#FFBCA7"/>
<path d="M92.8349 45.9477H86.1747V10.5848C86.1747 8.72166 85.3999 6.93483 84.0207 5.61739C82.6415 4.29995 80.7709 3.55981 78.8204 3.55981H36.3632C34.4127 3.55981 32.5421 4.29995 31.1629 5.61739C29.7837 6.93483 29.0088 8.72166 29.0088 10.5848V45.9477H22.3469C21.7949 45.9477 21.2483 46.0516 20.7383 46.2534C20.2283 46.4553 19.7649 46.7511 19.3746 47.1241C18.9843 47.497 18.6748 47.9397 18.4637 48.427C18.2526 48.9142 18.144 49.4364 18.1442 49.9638V103.892C18.1442 104.957 18.587 105.978 19.3752 106.731C20.1633 107.484 21.2323 107.907 22.3469 107.907H92.8333C93.9481 107.907 95.0172 107.484 95.8056 106.731C96.5941 105.978 97.0372 104.957 97.0377 103.892V49.9638C97.0377 48.8989 96.5949 47.8776 95.8068 47.1245C95.0187 46.3714 93.9497 45.9481 92.8349 45.9477Z" fill="#FF5722"/>
<path d="M70.7271 12.8102H44.4514C43.6741 12.8102 42.9044 12.9565 42.1863 13.2406C41.4682 13.5248 40.8158 13.9414 40.2662 14.4665C39.7166 14.9916 39.2807 15.6149 38.9834 16.301C38.6861 16.987 38.5332 17.7223 38.5334 18.4648V26.6095C38.5332 27.352 38.6861 28.0873 38.9834 28.7733C39.2807 29.4594 39.7166 30.0827 40.2662 30.6078C40.8158 31.1329 41.4682 31.5495 42.1863 31.8337C42.9044 32.1179 43.6741 32.2641 44.4514 32.2641H70.7271C72.2971 32.2641 73.8028 31.6684 74.9129 30.6079C76.0231 29.5475 76.6468 28.1092 76.6468 26.6095V18.4648C76.6468 17.7222 76.4937 16.9869 76.1962 16.3008C75.8987 15.6148 75.4626 14.9914 74.9129 14.4664C74.3633 13.9413 73.7107 13.5248 72.9925 13.2406C72.2743 12.9564 71.5045 12.8102 70.7271 12.8102Z" fill="white"/>
<path d="M64.8539 37.844H56.4884L46.8907 48.8994H58.7799L50.4575 62.3815L68.2912 44.4947H57.8882L64.8539 37.844Z" fill="white"/>
<path d="M70.7288 35.0921H44.4531C42.0987 35.0896 39.8415 34.1951 38.1767 32.6048C36.5119 31.0145 35.5754 28.8584 35.5728 26.6094V18.4646C35.5754 16.2157 36.5119 14.0595 38.1767 12.4693C39.8415 10.879 42.0987 9.98451 44.4531 9.98199H70.7288C73.0832 9.98451 75.3404 10.879 77.0052 12.4693C78.67 14.0595 79.6065 16.2157 79.6091 18.4646V26.6094C79.6065 28.8584 78.67 31.0145 77.0052 32.6048C75.3404 34.1951 73.0832 35.0896 70.7288 35.0921ZM44.4531 15.6397C43.6691 15.6406 42.9174 15.9385 42.3629 16.4681C41.8085 16.9976 41.4967 17.7157 41.4958 18.4646V26.6094C41.4967 27.3584 41.8085 28.0764 42.3629 28.606C42.9174 29.1356 43.6691 29.4335 44.4531 29.4343H70.7288C71.5131 29.4339 72.2653 29.1362 72.8201 28.6066C73.3748 28.0769 73.6869 27.3587 73.6878 26.6094V18.4646C73.6869 17.7154 73.3748 16.9971 72.8201 16.4675C72.2653 15.9379 71.5131 15.6402 70.7288 15.6397H44.4531Z" fill="#BF411A"/>
<path d="M94.077 79.7561V103.895C94.0766 104.21 93.9456 104.512 93.7127 104.734C93.4799 104.956 93.1642 105.081 92.835 105.082H22.347C22.0177 105.081 21.702 104.956 21.4692 104.734C21.2363 104.512 21.1053 104.21 21.1049 103.895V49.9669C21.1053 49.6523 21.2363 49.3508 21.4692 49.1284C21.702 48.906 22.0177 48.7809 22.347 48.7805H31.9695V10.5832C31.9713 9.47074 32.4348 8.40438 33.2584 7.61792C34.0821 6.83146 35.1986 6.3891 36.3632 6.38784H78.8204C79.9847 6.38952 81.1008 6.83207 81.9241 7.61848C82.7473 8.40489 83.2106 9.47101 83.2124 10.5832V48.7757H92.835C93.1642 48.7761 93.4799 48.9013 93.7127 49.1237C93.9456 49.3461 94.0766 49.6476 94.077 49.9621V74.0983H100V49.9574C99.9978 48.1428 99.2422 46.4032 97.899 45.1201C96.5557 43.8371 94.7346 43.1153 92.835 43.1132H89.1354V10.5832C89.1323 7.97087 88.0446 5.46642 86.1108 3.61924C84.177 1.77207 81.5552 0.733041 78.8204 0.730103H36.3615C33.6268 0.733041 31.0049 1.77207 29.0711 3.61924C27.1374 5.46642 26.0496 7.97087 26.0465 10.5832V43.118H22.347C20.4482 43.1201 18.6278 43.8412 17.2847 45.1232C15.9416 46.4052 15.1854 48.1437 15.1819 49.9574V103.886C15.1841 105.7 15.9397 107.44 17.2829 108.723C18.6262 110.006 20.4473 110.728 22.347 110.73H92.8333C94.7329 110.728 96.5541 110.006 97.8973 108.723C99.2405 107.44 99.9961 105.7 99.9983 103.886V79.7561H94.077Z" fill="#BF411A"/>
</svg>
