<svg width="47" height="47" viewBox="0 0 47 47" fill="none" xmlns="http://www.w3.org/2000/svg">
<path d="M39.0895 17.4963C38.9966 17.2792 38.842 17.0941 38.6449 16.964C38.4478 16.834 38.2169 16.7646 37.9807 16.7646H26.9202L34.2176 9.46642C34.3862 9.29765 34.501 9.0827 34.5475 8.84873C34.594 8.61475 34.5701 8.37224 34.4788 8.15184C34.3876 7.93143 34.233 7.74302 34.0347 7.6104C33.8364 7.47779 33.6033 7.40691 33.3648 7.40674H22.1257C21.9483 7.40683 21.7732 7.44602 21.6127 7.52152C21.4522 7.59702 21.3103 7.70697 21.1971 7.84355L13.7882 16.7782H16.9231L22.6925 9.82033H30.4498L23.1524 17.1185C22.9838 17.2873 22.869 17.5024 22.8225 17.7364C22.776 17.9705 22.8 18.213 22.8913 18.4335C22.9827 18.6539 23.1374 18.8423 23.3358 18.9749C23.5342 19.1074 23.7674 19.1782 24.0061 19.1782H35.1654L20.4112 34.6697L26.2459 24.773C26.3538 24.5899 26.4115 24.3816 26.4132 24.1692C26.4148 23.9567 26.3602 23.7475 26.2551 23.5629C26.1499 23.3782 25.9979 23.2246 25.8143 23.1175C25.6308 23.0105 25.4222 22.9538 25.2097 22.9532H11.8042L14.928 19.1854H11.7931L8.30733 23.3892C8.1612 23.5656 8.06828 23.7799 8.03941 24.0071C8.01054 24.2343 8.04692 24.465 8.1443 24.6723C8.24168 24.8796 8.39605 25.0549 8.58936 25.1778C8.78267 25.3006 9.00694 25.3659 9.23598 25.366H23.0934L12.9879 42.5091C12.8379 42.7642 12.7869 43.0656 12.8446 43.3559C12.9023 43.6462 13.0647 43.9052 13.3008 44.0836C13.537 44.262 13.8305 44.3474 14.1255 44.3235C14.4205 44.2997 14.6965 44.1682 14.9009 43.9542L38.8583 18.8036C39.0204 18.6321 39.1287 18.4169 39.1698 18.1846C39.2109 17.9523 39.1829 17.713 39.0895 17.4963Z" fill="white"/>
<path d="M23.4999 0.134766C23.2618 0.135187 23.0336 0.229966 22.8652 0.398343C22.6969 0.56672 22.6021 0.794967 22.6016 1.03309V3.80936C22.6016 4.04761 22.6963 4.2761 22.8647 4.44457C23.0332 4.61304 23.2617 4.70768 23.4999 4.70768C23.7382 4.70768 23.9667 4.61304 24.1352 4.44457C24.3037 4.2761 24.3983 4.04761 24.3983 3.80936V1.03309C24.3981 0.794902 24.3033 0.566534 24.1349 0.398112C23.9665 0.229689 23.7381 0.134977 23.4999 0.134766Z" fill="white"/>
<path d="M23.4999 42.2922C23.2618 42.2927 23.0336 42.3874 22.8652 42.5558C22.6968 42.7242 22.602 42.9524 22.6016 43.1906V45.966C22.6016 46.084 22.6249 46.2008 22.67 46.3098C22.7151 46.4188 22.7813 46.5178 22.8647 46.6012C22.9481 46.6846 23.0471 46.7508 23.1561 46.796C23.2651 46.8411 23.3819 46.8643 23.4999 46.8643C23.6178 46.8643 23.7347 46.8411 23.8436 46.796C23.9526 46.7508 24.0517 46.6846 24.1352 46.6012C24.2186 46.5178 24.2847 46.4188 24.3299 46.3098C24.375 46.2008 24.3983 46.084 24.3983 45.966V43.1913C24.3983 42.953 24.3036 42.7245 24.1352 42.5559C23.9667 42.3873 23.7382 42.2924 23.4999 42.2922Z" fill="white"/>
<path d="M46.8676 23.5C46.8672 23.2619 46.7724 23.0337 46.6041 22.8653C46.4357 22.6969 46.2074 22.6021 45.9693 22.6017H43.1931C42.9548 22.6017 42.7262 22.6963 42.5578 22.8648C42.3893 23.0333 42.2947 23.2618 42.2947 23.5C42.2947 23.7383 42.3893 23.9668 42.5578 24.1352C42.7262 24.3037 42.9548 24.3983 43.1931 24.3983H45.9693C46.2074 24.3981 46.4358 24.3034 46.6042 24.135C46.7727 23.9666 46.8674 23.7382 46.8676 23.5Z" fill="white"/>
<path d="M4.70774 23.5C4.70732 23.2619 4.61258 23.0337 4.4442 22.8653C4.27582 22.6969 4.04758 22.6021 3.80946 22.6017H1.03398C0.795735 22.6017 0.567222 22.6963 0.398753 22.8648C0.230285 23.0333 0.135651 23.2618 0.135651 23.5C0.135651 23.7383 0.230285 23.9668 0.398753 24.1352C0.567222 24.3037 0.795735 24.3983 1.03398 24.3983H3.80946C4.04764 24.3981 4.27597 24.3034 4.4444 24.135C4.61282 23.9666 4.70753 23.7382 4.70774 23.5Z" fill="white"/>
<path d="M40.0221 6.97859C39.8534 6.81047 39.6249 6.71606 39.3868 6.71606C39.1486 6.71606 38.9202 6.81047 38.7515 6.97859L36.789 8.94183C36.6206 9.11032 36.5259 9.33883 36.5259 9.57711C36.5259 9.81539 36.6206 10.0439 36.789 10.2124C36.9575 10.3809 37.186 10.4755 37.4243 10.4755C37.6626 10.4755 37.8911 10.3809 38.0596 10.2124L40.0221 8.24995C40.1904 8.08124 40.285 7.85262 40.285 7.61427C40.285 7.37592 40.1904 7.1473 40.0221 6.97859Z" fill="white"/>
<path d="M10.2125 36.7884C10.0438 36.6201 9.81514 36.5255 9.57679 36.5255C9.33844 36.5255 9.10983 36.6201 8.94112 36.7884L6.9787 38.7509C6.81021 38.9194 6.71555 39.1479 6.71555 39.3862C6.71555 39.6244 6.81021 39.853 6.9787 40.0215C7.14718 40.1899 7.3757 40.2846 7.61398 40.2846C7.85225 40.2846 8.08077 40.1899 8.24926 40.0215L10.2117 38.059C10.3799 37.8904 10.4745 37.6621 10.4746 37.4239C10.4748 37.1857 10.3805 36.9572 10.2125 36.7884Z" fill="white"/>
<path d="M40.0212 40.0221C40.1896 39.8535 40.2842 39.625 40.2842 39.3868C40.2842 39.1486 40.1896 38.9201 40.0212 38.7515L38.0589 36.7883C37.8904 36.6198 37.6619 36.5251 37.4236 36.5251C37.1853 36.5251 36.9568 36.6198 36.7883 36.7883C36.6198 36.9568 36.5251 37.1853 36.5251 37.4236C36.5251 37.6619 36.6198 37.8904 36.7883 38.0589L38.7507 40.0213C38.9193 40.1895 39.1477 40.2841 39.3859 40.2842C39.624 40.2844 39.8525 40.1901 40.0212 40.0221Z" fill="white"/>
<path d="M10.2117 10.2117C10.3798 10.043 10.4742 9.8146 10.4742 9.57644C10.4742 9.33828 10.3798 9.10984 10.2117 8.94116L8.24926 6.97872C8.16583 6.89529 8.06679 6.82911 7.95779 6.78396C7.84879 6.73881 7.73196 6.71558 7.61398 6.71558C7.49599 6.71558 7.37916 6.73881 7.27016 6.78396C7.16116 6.82911 7.06212 6.89529 6.9787 6.97872C6.89527 7.06214 6.8291 7.16119 6.78395 7.27019C6.7388 7.37919 6.71555 7.49602 6.71555 7.614C6.71555 7.73198 6.7388 7.84881 6.78395 7.95782C6.8291 8.06682 6.89527 8.16586 6.9787 8.24928L8.94112 10.2117C9.1098 10.3798 9.33824 10.4743 9.5764 10.4743C9.81455 10.4743 10.043 10.3798 10.2117 10.2117Z" fill="white"/>
</svg>
