<svg width="53" height="27" viewBox="0 0 53 27" fill="none" xmlns="http://www.w3.org/2000/svg">
<path d="M52.2444 22.3358L50.6415 18.5998C50.3591 17.9399 49.9203 17.3587 49.363 16.9064C48.8056 16.4541 48.1467 16.1443 47.4428 16.0037L44.3165 15.378V14.8311C45.0187 14.2183 45.5354 13.4212 45.808 12.5299C46.3751 12.3596 46.8708 12.0082 47.2194 11.5295C47.568 11.0507 47.7501 10.471 47.738 9.87889C47.7259 9.28681 47.5203 8.71499 47.1525 8.25089C46.7846 7.78679 46.2748 7.45596 45.7011 7.30899C45.3418 6.36139 44.7028 5.54555 43.8687 4.96983C43.0347 4.39411 42.0453 4.08577 41.0318 4.08577C40.0184 4.08577 39.0289 4.39411 38.1949 4.96983C37.3609 5.54555 36.7216 6.36139 36.3623 7.30899C35.7887 7.45605 35.2792 7.78697 34.9114 8.25112C34.5436 8.71527 34.3378 9.28711 34.3258 9.87919C34.3138 10.4713 34.496 11.051 34.8446 11.5297C35.1933 12.0084 35.6893 12.3597 36.2565 12.5299C36.529 13.4212 37.0455 14.2184 37.7477 14.8311V15.378L36.4478 15.6378C35.742 14.8006 34.7731 14.2276 33.6994 14.0125L32.3323 13.7391C32.3323 13.7391 32.3323 13.7431 32.3323 13.7455L30.0623 13.2912V12.5212C30.8705 11.8292 31.4603 10.9173 31.76 9.89635C32.3846 9.72305 32.9338 9.34677 33.3209 8.82684C33.708 8.30691 33.9111 7.67291 33.8981 7.02482C33.885 6.37673 33.6564 5.75144 33.2487 5.24753C32.8409 4.74362 32.277 4.38977 31.6459 4.24178C31.2601 3.18708 30.5595 2.27639 29.639 1.63299C28.7185 0.989587 27.6227 0.644531 26.4997 0.644531C25.3766 0.644531 24.2806 0.989587 23.3602 1.63299C22.4397 2.27639 21.7391 3.18708 21.3532 4.24178C20.7221 4.38986 20.1583 4.74379 19.7507 5.24776C19.343 5.75172 19.1146 6.37704 19.1017 7.02512C19.0887 7.67321 19.2917 8.30717 19.6789 8.82705C20.066 9.34692 20.6153 9.72314 21.24 9.89635C21.5395 10.9174 22.1295 11.8293 22.9379 12.5212V13.292L19.3309 14.0133C18.2548 14.229 17.2841 14.804 16.5779 15.6442L15.2515 15.3788V14.8319C15.9536 14.2191 16.4701 13.422 16.7427 12.5307C17.3099 12.3605 17.8059 12.0092 18.1545 11.5305C18.5032 11.0518 18.6854 10.4721 18.6733 9.87999C18.6613 9.28792 18.4556 8.71606 18.0878 8.25191C17.72 7.78776 17.2105 7.45685 16.6368 7.30979C16.2777 6.36193 15.6386 5.54581 14.8045 4.96989C13.9703 4.39397 12.9806 4.08552 11.967 4.08552C10.9533 4.08552 9.96376 4.39397 9.12965 4.96989C8.29553 5.54581 7.65644 6.36193 7.29727 7.30979C6.72362 7.45685 6.2139 7.78776 5.84612 8.25191C5.47834 8.71606 5.27278 9.28792 5.26075 9.87999C5.24873 10.4721 5.43093 11.0518 5.77956 11.5305C6.1282 12.0092 6.624 12.3605 7.19121 12.5307C7.4639 13.4219 7.98056 14.219 8.68264 14.8319V15.3788L5.55635 16.0045C4.85258 16.1453 4.19368 16.4552 3.6364 16.9075C3.07913 17.3598 2.64026 17.9408 2.35767 18.6006L0.756287 22.3366H13.5209L11.8239 26.3571H25.4041V18.6779H27.592V26.3571H41.2015L39.5069 22.3358H52.2413H52.2444ZM45.5904 9.08013V8.9494C45.7636 9.04916 45.9074 9.19279 46.0074 9.36582C46.1074 9.53884 46.16 9.73516 46.16 9.935C46.16 10.1349 46.1074 10.3312 46.0074 10.5042C45.9074 10.6772 45.7636 10.8209 45.5904 10.9206V9.08013ZM36.474 9.08013V10.9198C36.3008 10.8202 36.157 10.6766 36.057 10.5037C35.957 10.3307 35.9042 10.1344 35.9042 9.93462C35.9042 9.73481 35.957 9.53853 36.057 9.36556C36.157 9.1926 36.3008 9.04905 36.474 8.9494V9.08013ZM31.6117 6.12452V5.97785C31.8061 6.08963 31.9676 6.25069 32.0799 6.44479C32.1922 6.6389 32.2514 6.85917 32.2514 7.08341C32.2514 7.30765 32.1922 7.52792 32.0799 7.72202C31.9676 7.91612 31.8061 8.07719 31.6117 8.18898V6.12452ZM21.3826 6.12452V8.18898C21.1882 8.07719 21.0269 7.91612 20.9146 7.72202C20.8023 7.52792 20.7431 7.30765 20.7431 7.08341C20.7431 6.85917 20.8023 6.6389 20.9146 6.44479C21.0269 6.25069 21.1882 6.08963 21.3826 5.97785V6.12452ZM16.5205 9.08093V8.95021C16.6936 9.04996 16.8373 9.19358 16.9373 9.36661C17.0373 9.53963 17.0901 9.73596 17.0901 9.93581C17.0901 10.1357 17.0373 10.332 16.9373 10.505C16.8373 10.678 16.6936 10.8216 16.5205 10.9214V9.08093ZM7.40333 9.08093V10.9198C7.23014 10.8202 7.08613 10.6766 6.9861 10.5037C6.88607 10.3307 6.83353 10.1344 6.83353 9.93462C6.83353 9.73481 6.88607 9.53853 6.9861 9.36556C7.08613 9.1926 7.23014 9.04905 7.40333 8.9494V9.08093ZM11.9611 5.98821C12.4633 5.98798 12.9579 6.11008 13.4023 6.34395C13.8468 6.57783 14.2276 6.91645 14.5118 7.33052H9.41513C9.69927 6.91635 10.0799 6.57761 10.5244 6.3436C10.9688 6.10959 11.4635 5.98733 11.9658 5.98741L11.9611 5.98821ZM13.6707 16.0387C13.4506 16.2709 13.1856 16.4558 12.8917 16.5821C12.5978 16.7085 12.2814 16.7737 11.9615 16.7737C11.6416 16.7737 11.325 16.7085 11.0311 16.5821C10.7372 16.4558 10.4722 16.2709 10.2521 16.0387V15.3006C11.3482 15.7457 12.5746 15.7457 13.6707 15.3006V16.0387ZM15.0545 11.0753C15.0545 11.8956 14.7287 12.6823 14.1486 13.2624C13.5686 13.8425 12.7818 14.1684 11.9615 14.1684C11.1412 14.1684 10.3542 13.8425 9.77417 13.2624C9.1941 12.6823 8.8683 11.8956 8.8683 11.0753V9.12238H15.0545V11.0753ZM26.4944 2.65476C27.0575 2.65498 27.6121 2.79225 28.1102 3.05472C28.6083 3.31719 29.035 3.69697 29.3535 4.16127H23.6353C23.9543 3.69621 24.3818 3.3159 24.8808 3.05326C25.3798 2.79062 25.9352 2.65357 26.4991 2.65397L26.4944 2.65476ZM28.4122 13.9312C28.1653 14.1917 27.8679 14.3992 27.5381 14.541C27.2083 14.6828 26.853 14.7559 26.494 14.7559C26.1351 14.7559 25.7798 14.6828 25.45 14.541C25.1202 14.3992 24.8228 14.1917 24.5758 13.9312V13.103C25.8059 13.6022 27.1821 13.6022 28.4122 13.103V13.9312ZM29.965 8.36275C29.9512 9.27398 29.5795 10.1432 28.9303 10.7827C28.281 11.4222 27.4061 11.7807 26.4948 11.7807C25.5835 11.7807 24.7086 11.4222 24.0594 10.7827C23.4101 10.1432 23.0385 9.27398 23.0247 8.36275V6.17154H29.965V8.36275ZM41.027 5.98821C41.5292 5.98798 42.024 6.11008 42.4684 6.34395C42.9128 6.57783 43.2934 6.91645 43.5776 7.33052H38.4812C38.7653 6.91614 39.146 6.57727 39.5906 6.34324C40.0352 6.10921 40.5302 5.98707 41.0326 5.98741L41.027 5.98821ZM37.9336 11.0753V9.12238H44.1198V11.0753C44.1198 11.8956 43.7938 12.6823 43.2137 13.2624C42.6336 13.8425 41.8469 14.1684 41.0266 14.1684C40.2062 14.1684 39.4195 13.8425 38.8394 13.2624C38.2594 12.6823 37.9336 11.8956 37.9336 11.0753ZM39.3164 16.0379V15.2998C40.4128 15.7452 41.6396 15.7452 42.736 15.2998V16.0387C42.5159 16.271 42.2507 16.456 41.9568 16.5824C41.6628 16.7089 41.3462 16.7741 41.0262 16.7741C40.7062 16.7741 40.3895 16.7089 40.0956 16.5824C39.8016 16.456 39.5365 16.271 39.3164 16.0387V16.0379Z" fill="white"/>
<path d="M38.3494 17.3085C38.4323 17.3927 38.5197 17.4726 38.611 17.5476C39.2999 18.0894 40.1563 18.3733 41.0324 18.3503C41.5271 18.3693 42.0205 18.2872 42.4824 18.109C42.9443 17.9308 43.3649 17.6604 43.7187 17.3141L47.0489 17.9796C47.4328 18.0567 47.7922 18.2259 48.0961 18.4726C48.4001 18.7194 48.6394 19.0363 48.7938 19.3961L49.1923 20.3303H38.6596L37.464 17.4902L38.3494 17.3085Z" fill="#0099F6"/>
<path d="M14.3676 20.3248H3.80518L4.20372 19.3914C4.35815 19.0317 4.59764 18.7148 4.90157 18.4681C5.2055 18.2214 5.56494 18.0522 5.94872 17.975L9.28207 17.3086C9.36524 17.3928 9.45285 17.4727 9.54439 17.5477C10.2332 18.0897 11.0897 18.3736 11.9658 18.3504C12.4606 18.3695 12.9542 18.2874 13.4162 18.1092C13.8782 17.9311 14.299 17.6605 14.6529 17.3142L15.5615 17.4959L14.3676 20.3248Z" fill="#0099F6"/>
<path d="M36.6981 20.8731H36.6782L35.323 17.6441C35.1421 17.2219 34.8613 16.8501 34.5047 16.5607C34.1481 16.2713 33.7265 16.073 33.2762 15.9829L29.474 15.2233C29.0879 15.6157 28.6241 15.923 28.1122 16.1254C27.6003 16.3279 27.0517 16.4211 26.5017 16.399C25.5463 16.4238 24.6124 16.1136 23.8617 15.5222C23.7458 15.4279 23.6358 15.3265 23.5324 15.2185L19.7272 15.9789C19.2768 16.0693 18.8552 16.2678 18.4987 16.5573C18.1421 16.8468 17.8613 17.2187 17.6804 17.6409L14.8849 24.3428H25.4065V25.348H27.5954V24.35H38.1424L36.6981 20.8731Z" fill="#0099F6"/>
</svg>
