<svg width="47" height="47" viewBox="0 0 47 47" fill="none" xmlns="http://www.w3.org/2000/svg">
<path d="M31.3705 0.814819H15.6296C14.3295 0.816296 13.083 1.33341 12.1637 2.25271C11.2444 3.17202 10.7272 4.41844 10.7258 5.71853V32.7495H13.0581V7.81249H33.942V11.8777H36.275V5.71853C36.2734 4.41837 35.7561 3.17195 34.8366 2.25267C33.9172 1.33338 32.6706 0.816296 31.3705 0.814819ZM13.0668 5.4802C13.1271 4.8428 13.4227 4.25072 13.8959 3.8195C14.3692 3.38827 14.9861 3.14883 15.6263 3.14791H31.3674C32.0077 3.14865 32.6246 3.38803 33.0979 3.81929C33.5711 4.25055 33.8667 4.84273 33.9268 5.4802H13.0668Z" fill="white"/>
<path d="M33.9419 39.1859H13.058V35.214H10.7258V41.2855C10.7273 42.5856 11.2443 43.832 12.1637 44.7513C13.083 45.6706 14.3294 46.1877 15.6295 46.1892H22.3362V43.8569H15.6295C14.9886 43.8561 14.3711 43.6163 13.8977 43.1844C13.4242 42.7525 13.1288 42.1595 13.0692 41.5214H33.9307C33.8712 42.1594 33.576 42.7522 33.1027 43.1841C32.6294 43.616 32.0121 43.8559 31.3713 43.8569H24.6645V46.1892H31.3713C32.6714 46.1877 33.9178 45.6706 34.8371 44.7513C35.7564 43.832 36.2735 42.5856 36.275 41.2855V14.9846H33.9419V39.1859Z" fill="white"/>
<path d="M45.4009 11.8816L39.5822 8.08983L39.5025 8.0428C39.2354 7.89419 38.9353 7.81473 38.6296 7.81165C38.4068 7.815 38.1871 7.86417 37.9841 7.95608C37.7811 8.04799 37.5991 8.18068 37.4496 8.34591C37.3001 8.51113 37.1862 8.70536 37.1149 8.9165C37.0437 9.12764 37.0166 9.35118 37.0354 9.57322V10.564H30.5328C30.4562 10.5639 30.3803 10.5789 30.3096 10.6081C30.2388 10.6374 30.1744 10.6803 30.1202 10.7344C30.066 10.7885 30.023 10.8528 29.9937 10.9235C29.9644 10.9943 29.9492 11.0701 29.9492 11.1467V12.8955H39.3749V10.7378L43.3189 13.3068L39.3749 15.8766V13.7245H29.9532V15.4733C29.9532 15.5499 29.9684 15.6257 29.9977 15.6965C30.027 15.7672 30.07 15.8315 30.1242 15.8856C30.1784 15.9397 30.2428 15.9826 30.3135 16.0118C30.3843 16.0411 30.4602 16.0561 30.5368 16.056H37.0394V17.038C37.0209 17.2612 37.0485 17.4858 37.1205 17.6979C37.1924 17.9101 37.3071 18.1051 37.4576 18.271C37.6081 18.437 37.791 18.5702 37.9951 18.6625C38.1992 18.7548 38.42 18.8041 38.644 18.8075C38.9779 18.8057 39.3041 18.7063 39.5822 18.5214L45.4009 14.7296L45.4383 14.7041C45.6697 14.5466 45.8583 14.3342 45.9875 14.086C46.1167 13.8378 46.1824 13.5614 46.1787 13.2816C46.175 13.0018 46.102 12.7272 45.9663 12.4825C45.8306 12.2378 45.6363 12.0305 45.4009 11.8792V11.8816Z" fill="white"/>
<path d="M16.464 30.9432H9.96135V29.9612C9.97983 29.738 9.95223 29.5134 9.8803 29.3012C9.80836 29.0891 9.6936 28.8941 9.54315 28.7281C9.3927 28.5622 9.20974 28.429 9.00566 28.3367C8.80158 28.2444 8.58071 28.195 8.35675 28.1917C8.02254 28.1933 7.69615 28.2928 7.4178 28.4778L1.59898 32.2696L1.56152 32.2951C1.33022 32.4526 1.14154 32.6649 1.01235 32.9132C0.883167 33.1614 0.817544 33.4378 0.821255 33.7176C0.824966 33.9974 0.897939 34.272 1.03366 34.5167C1.16939 34.7614 1.36359 34.9687 1.59898 35.12L7.4178 38.9117L7.49749 38.9588C7.7646 39.1074 8.06462 39.1868 8.37028 39.1899C8.59309 39.1866 8.81287 39.1374 9.01587 39.0455C9.21887 38.9536 9.40082 38.8209 9.55035 38.6557C9.69987 38.4904 9.81381 38.2962 9.88507 38.0851C9.95632 37.8739 9.9833 37.6504 9.96446 37.4284V36.4392H16.4672C16.5438 36.4393 16.6196 36.4243 16.6904 36.395C16.7612 36.3658 16.8255 36.3229 16.8797 36.2688C16.9339 36.2147 16.9769 36.1504 17.0063 36.0796C17.0356 36.0089 17.0506 35.9331 17.0506 35.8565V34.1077H7.63225V36.2662L3.68902 33.6964L7.63225 31.1274V33.2795H17.0506V31.5307C17.0513 31.4534 17.0366 31.3768 17.0073 31.3053C16.9781 31.2338 16.9348 31.1688 16.8802 31.1141C16.8257 31.0595 16.7608 31.0162 16.6893 30.9869C16.6179 30.9575 16.5413 30.9427 16.464 30.9432Z" fill="white"/>
<path d="M23.5 32.7798C21.6634 32.7798 19.868 32.2352 18.3409 31.2148C16.8138 30.1944 15.6236 28.7441 14.9207 27.0473C14.2179 25.3505 14.034 23.4833 14.3923 21.682C14.7506 19.8807 15.635 18.2261 16.9337 16.9274C18.2324 15.6287 19.887 14.7443 21.6883 14.386C23.4897 14.0276 25.3568 14.2116 27.0536 14.9144C28.7504 15.6172 30.2008 16.8075 31.2211 18.3346C32.2415 19.8617 32.7861 21.657 32.7861 23.4936C32.7834 25.9556 31.8041 28.316 30.0633 30.0569C28.3224 31.7978 25.962 32.777 23.5 32.7798ZM23.5 16.5406C22.1248 16.5406 20.7805 16.9484 19.6371 17.7124C18.4937 18.4763 17.6025 19.5622 17.0763 20.8326C16.55 22.1031 16.4123 23.5011 16.6805 24.8498C16.9488 26.1986 17.6108 27.4375 18.5832 28.4099C19.5555 29.3823 20.7943 30.0446 22.143 30.313C23.4917 30.5814 24.8897 30.4438 26.1602 29.9176C27.4307 29.3915 28.5168 28.5004 29.2809 27.3571C30.045 26.2138 30.4529 24.8696 30.453 23.4944C30.4511 21.6508 29.718 19.8832 28.4145 18.5794C27.111 17.2757 25.3436 16.5421 23.5 16.5398V16.5406Z" fill="white"/>
<path d="M28.9664 22.3721C28.7912 21.9988 28.5123 21.6836 28.163 21.4643C27.8276 21.2578 27.4409 21.1498 27.0471 21.1526C26.7295 21.1482 26.4158 21.223 26.1344 21.3702C25.9814 21.4537 25.839 21.5554 25.7104 21.6731C25.6772 21.5653 25.6206 21.4662 25.5446 21.383C25.4726 21.3054 25.385 21.244 25.2876 21.2028C25.1902 21.1616 25.0852 21.1415 24.9794 21.1438C24.874 21.1404 24.7691 21.16 24.6721 21.2013C24.575 21.2426 24.4881 21.3046 24.4175 21.383C24.2739 21.566 24.2026 21.7956 24.2174 22.0278V25.1149V25.1094C24.1041 24.8507 23.9723 24.6005 23.8228 24.3609C23.6535 24.084 23.4607 23.8221 23.2466 23.5781C23.1483 23.4664 23.0417 23.3623 22.9277 23.2665C23.2556 23.1596 23.5534 22.9763 23.7965 22.7316C24.1101 22.3828 24.2743 21.9249 24.254 21.4563C24.2551 21.2065 24.21 20.9587 24.1209 20.7254C24.0331 20.4955 23.8988 20.2863 23.7264 20.1108C23.5584 19.9388 23.3579 19.802 23.1365 19.7083C22.941 19.6213 22.7332 19.5651 22.5204 19.5417C22.2669 19.5141 22.0119 19.5013 21.7568 19.5034H19.6724C19.5364 19.4826 19.3973 19.494 19.2665 19.5369C19.1357 19.5797 19.0168 19.6528 18.9195 19.7501C18.8222 19.8474 18.7492 19.9663 18.7063 20.0971C18.6635 20.2279 18.652 20.3669 18.6728 20.503V25.37C18.6586 25.6276 18.7363 25.8818 18.8921 26.0874C18.9708 26.1782 19.0691 26.2501 19.1795 26.2975C19.2899 26.345 19.4096 26.3669 19.5297 26.3616C19.6452 26.365 19.7602 26.3438 19.8668 26.2993C19.9735 26.2547 20.0694 26.1879 20.1482 26.1033C20.3174 25.8964 20.4012 25.6327 20.3826 25.366V23.5479H20.6169C20.7817 23.5423 20.9461 23.5677 21.1016 23.6228C21.2418 23.6875 21.3655 23.7831 21.4634 23.9026C21.6411 24.1159 21.7987 24.3451 21.9345 24.5873L22.4478 25.4417C22.5722 25.6498 22.6687 25.8028 22.7412 25.9096C22.8235 26.032 22.9278 26.1379 23.0489 26.2221C23.1922 26.3175 23.3615 26.3662 23.5335 26.3616C23.6784 26.364 23.8216 26.3315 23.9511 26.2667C24.0543 26.2142 24.1444 26.1393 24.215 26.0475V27.1101C24.2028 27.3463 24.2485 27.5819 24.3481 27.7964C24.4117 27.9035 24.5049 27.9901 24.6164 28.0456C24.7279 28.1012 24.8531 28.1234 24.977 28.1096C25.2679 28.1096 25.7566 27.9805 25.7566 27.1188V25.8889C25.8592 25.9787 25.9699 26.0588 26.0874 26.1281C26.3795 26.2903 26.7099 26.3707 27.0439 26.3608C27.3445 26.3626 27.6419 26.2996 27.9159 26.1759C28.1866 26.0526 28.4273 25.872 28.6213 25.6466C28.8285 25.4007 28.9856 25.1167 29.0837 24.8105C29.1958 24.4659 29.2512 24.1055 29.2478 23.7431C29.2607 23.2706 29.1644 22.8014 28.9664 22.3721ZM22.5323 21.5344C22.542 21.6733 22.5016 21.811 22.4184 21.9226C22.3183 22.0269 22.1887 22.0981 22.047 22.1266C21.8095 22.1801 21.5665 22.2047 21.3231 22.2H20.3882V20.8896H21.3566C21.6265 20.8704 21.8977 20.8973 22.1585 20.9693C22.2704 21.0132 22.3664 21.0902 22.4335 21.1901C22.501 21.2923 22.5357 21.4127 22.5332 21.5352L22.5323 21.5344ZM27.6433 23.7304C27.6505 23.9826 27.6054 24.2337 27.511 24.4677C27.4436 24.6356 27.3307 24.7814 27.185 24.8886C27.0611 24.9758 26.9132 25.0223 26.7617 25.0217C26.6345 25.0229 26.5087 24.9948 26.3941 24.9395C26.2795 24.8842 26.1791 24.8032 26.1009 24.7028C25.8963 24.4276 25.7965 24.0885 25.8195 23.7463C25.7925 23.3932 25.8926 23.0421 26.1017 22.7563C26.1813 22.6581 26.2821 22.5792 26.3965 22.5255C26.511 22.4718 26.6361 22.4447 26.7625 22.4463C26.9185 22.4451 27.0708 22.494 27.1969 22.5858C27.3408 22.6938 27.4514 22.8402 27.5158 23.0082C27.6058 23.2383 27.6486 23.4842 27.6417 23.7312L27.6433 23.7304Z" fill="white"/>
</svg>
